<?xml version="1.0" standalone="no"?>
<!DOCTYPE svg PUBLIC "-//W3C//DTD SVG 20010904//EN"
 "http://www.w3.org/TR/2001/REC-SVG-20010904/DTD/svg10.dtd">
<svg version="1.0" xmlns="http://www.w3.org/2000/svg"
 width="328.000000pt" height="328.000000pt" viewBox="0 0 328.000000 328.000000"
 preserveAspectRatio="xMidYMid meet">
<metadata>
Created by potrace 1.14, written by Peter Selinger 2001-2017
</metadata>
<g transform="translate(0.000000,328.000000) scale(0.100000,-0.100000)"
fill="#000000" stroke="none">
<path d="M1423 3260 c-68 -22 -150 -79 -190 -131 -14 -19 -52 -89 -84 -156
-79 -168 -89 -166 -89 18 0 77 -5 149 -10 160 -24 44 -55 49 -300 49 -245 0
-276 -5 -300 -49 -5 -11 -10 -83 -10 -160 l0 -140 -28 -3 -27 -3 0 -1275 0
-1275 28 -56 c35 -72 135 -171 207 -207 l55 -27 965 0 965 0 55 27 c72 36 172
135 207 207 l28 56 3 1372 c2 1360 2 1372 -18 1426 -14 38 -36 69 -71 102 -91
85 -47 80 -724 82 -573 2 -603 1 -662 -17z m1292 -57 c47 -25 85 -64 111 -113
18 -34 19 -88 19 -1410 l0 -1375 -26 -50 c-33 -63 -124 -149 -186 -178 l-48
-22 -945 0 -945 0 -48 22 c-62 29 -153 115 -186 178 l-26 50 -3 1247 -2 1248
347 2 348 3 17 35 c10 19 41 82 69 140 52 109 88 156 152 196 81 52 96 53 727
51 578 -2 585 -2 625 -24z m-1815 -203 l0 -140 -200 0 -200 0 0 133 c0 74 3
137 7 140 3 4 93 7 200 7 l193 0 0 -140z"/>
<path d="M1520 2988 c-24 -17 -51 -57 -98 -149 -57 -109 -64 -130 -58 -161 11
-57 45 -82 189 -133 72 -26 316 -114 542 -196 225 -82 420 -149 433 -149 36 0
80 27 97 60 23 44 22 647 -1 691 -30 58 -35 59 -577 59 l-494 0 -33 -22z
m1044 -49 l26 -20 0 -312 c0 -305 0 -311 -22 -334 -12 -13 -28 -23 -35 -23
-20 0 -1064 379 -1090 395 -12 8 -24 23 -28 34 -9 28 110 259 139 271 11 5
238 9 502 9 472 1 482 1 508 -20z"/>
<path d="M783 2376 l-28 -24 -3 -954 c-2 -932 -2 -954 18 -985 10 -18 37 -41
59 -53 39 -20 55 -20 811 -20 747 0 772 1 809 20 27 13 46 33 60 63 21 44 21
49 19 720 -3 780 7 707 -113 766 -55 27 -987 396 -1192 472 -45 16 -79 19
-232 19 -176 0 -181 -1 -208 -24z m422 -45 c133 -48 1071 -417 1153 -453 51
-22 97 -49 102 -59 6 -11 10 -276 10 -693 l0 -675 -24 -28 -24 -28 -780 0
-780 0 -26 24 -26 24 0 948 c0 748 3 948 13 952 6 3 84 6 172 6 131 0 169 -3
210 -18z"/>
<path d="M1762 1733 c-35 -19 -66 -42 -69 -49 -7 -19 75 -164 93 -164 26 0 27
30 4 71 -12 22 -20 42 -18 44 1 2 36 -12 77 -31 127 -59 231 -187 263 -323 12
-51 25 -65 48 -51 11 7 11 18 1 64 -35 159 -163 308 -317 370 l-54 22 37 25
c21 13 38 31 38 39 0 27 -39 20 -103 -17z"/>
<path d="M1490 1684 c-140 -38 -265 -145 -334 -285 l-42 -87 -23 34 c-23 33
-54 44 -66 24 -5 -9 91 -160 102 -160 24 0 153 97 153 116 0 27 -30 27 -66 -1
-19 -15 -38 -25 -41 -22 -12 12 62 142 113 196 57 61 151 117 244 143 34 10
45 18 45 33 0 25 -17 27 -85 9z"/>
<path d="M2075 1095 c-45 -28 -70 -50 -70 -62 0 -26 31 -28 66 -3 16 12 33 20
36 16 10 -10 -38 -114 -79 -171 -38 -54 -137 -133 -194 -156 -16 -6 -51 -17
-79 -24 -34 -8 -51 -17 -53 -30 -6 -28 16 -34 71 -19 171 45 309 169 371 336
l23 62 16 -30 c23 -45 43 -59 62 -44 14 11 12 18 -11 59 -34 58 -73 111 -82
110 -4 0 -38 -20 -77 -44z"/>
<path d="M1113 1094 c-9 -23 11 -97 48 -172 56 -115 177 -221 301 -263 l50
-17 -41 -23 c-43 -24 -51 -51 -19 -57 20 -4 158 75 158 90 0 17 -83 150 -97
155 -8 3 -20 0 -26 -6 -9 -9 -5 -23 16 -61 l27 -49 -32 10 c-155 44 -282 177
-328 344 -17 61 -43 84 -57 49z"/>
</g>
</svg>
